# xmcd
#
# Track frame offsets: 
#        150
#        15332
#        27730
#        39310
#        51700
#        62892
#        73982
#        84645
#        96890
#        110202
#        120497
#        129417
#        138895
#        150415
#        161152
#        173697
#        184427
#        196485
#
# Disc length: 2787 seconds
#
# Revision: 0
# Processed by: cddbd v1.4PL0 Copyright (c) Steve Scherf et al.
# Submitted via: ExactAudioCopy v0.90a11
#
DISCID=060ae112
DTITLE=Various Artist - The Cream of Rare Soul: Someday
DYEAR=1900
DGENRE=
TTITLE0=Martha Starr - I Wanna be Your Girl
TTITLE1=Martha Starr - Love is the Only Solution
TTITLE2=Emanuel Laskey - I'm a Peace Lovin' Man
TTITLE3=Silky Hargreaves - Lucky to be Loved by You
TTITLE4=Eddie Hill - You Got the Best of Me
TTITLE5=Rose Batiste - I Just Can't Leave You
TTITLE6=Joe Mathews - Sorry Just Ain't Good Enough
TTITLE7=Robert Ward - I'm Gonna Cry a River
TTITLE8=Pat Smith - Going Through a Whirlpool
TTITLE9=Emanuel Laskey - I've Got to Run for My Life
TTITLE10=Rose Batiste - Someday
TTITLE11=Joe Mathews - You Better Mend Your Ways
TTITLE12=Martha Starr - No Part Time Love for Me
TTITLE13=Jimmy Gilford - Nobody Loves Me Like My Baby
TTITLE14=Emanuel Laskey - You Better Quit it
TTITLE15=Joe Mathews - We Got a Good Thing Going
TTITLE16=Emanuel Laskey - Don't Lead Me On
TTITLE17=Pat Smith - Your Lovers Prayer
EXTD=
EXTT0=
EXTT1=
EXTT2=
EXTT3=
EXTT4=
EXTT5=
EXTT6=
EXTT7=
EXTT8=
EXTT9=
EXTT10=
EXTT11=
EXTT12=
EXTT13=
EXTT14=
EXTT15=
EXTT16=
EXTT17=
PLAYORDER=
